<svg width="230" height="41" viewBox="0 0 230 41" fill="none" xmlns="http://www.w3.org/2000/svg">
<path d="M55.4943 39H47.9375L57.7528 9.90909H67.1136L76.929 39H69.3722L62.5398 17.2386H62.3125L55.4943 39ZM54.4858 27.5511H70.2812V32.892H54.4858V27.5511ZM90.8139 39H80.0611V9.90909H90.7997C93.7637 9.90909 96.3158 10.4915 98.456 11.6562C100.606 12.8116 102.263 14.4782 103.428 16.6562C104.592 18.8248 105.175 21.4195 105.175 24.4403C105.175 27.4706 104.592 30.0748 103.428 32.2528C102.272 34.4309 100.62 36.1023 98.4702 37.267C96.3205 38.4223 93.7685 39 90.8139 39ZM87.0923 33.0057H90.544C92.1728 33.0057 93.5507 32.7311 94.6776 32.1818C95.8139 31.6231 96.6709 30.7188 97.2486 29.4688C97.8357 28.2093 98.1293 26.5331 98.1293 24.4403C98.1293 22.3475 97.8357 20.6809 97.2486 19.4403C96.6615 18.1903 95.795 17.2907 94.6491 16.7415C93.5128 16.1828 92.1113 15.9034 90.4446 15.9034H87.0923V33.0057ZM136.737 24.4545C136.737 27.6553 136.122 30.3684 134.891 32.5938C133.66 34.8191 131.993 36.5095 129.891 37.6648C127.798 38.8201 125.449 39.3977 122.845 39.3977C120.232 39.3977 117.878 38.8153 115.786 37.6506C113.693 36.4858 112.031 34.7955 110.8 32.5795C109.578 30.3542 108.967 27.6458 108.967 24.4545C108.967 21.2538 109.578 18.5407 110.8 16.3153C112.031 14.09 113.693 12.3996 115.786 11.2443C117.878 10.089 120.232 9.51136 122.845 9.51136C125.449 9.51136 127.798 10.089 129.891 11.2443C131.993 12.3996 133.66 14.09 134.891 16.3153C136.122 18.5407 136.737 21.2538 136.737 24.4545ZM129.55 24.4545C129.55 22.5606 129.28 20.9602 128.74 19.6534C128.21 18.3466 127.443 17.357 126.439 16.6847C125.445 16.0123 124.247 15.6761 122.845 15.6761C121.453 15.6761 120.255 16.0123 119.251 16.6847C118.248 17.357 117.476 18.3466 116.936 19.6534C116.406 20.9602 116.141 22.5606 116.141 24.4545C116.141 26.3485 116.406 27.9489 116.936 29.2557C117.476 30.5625 118.248 31.5521 119.251 32.2244C120.255 32.8968 121.453 33.233 122.845 33.233C124.247 33.233 125.445 32.8968 126.439 32.2244C127.443 31.5521 128.21 30.5625 128.74 29.2557C129.28 27.9489 129.55 26.3485 129.55 24.4545ZM140.842 39V9.90909H152.859C155.037 9.90909 156.917 10.3352 158.499 11.1875C160.089 12.0303 161.316 13.2093 162.178 14.7244C163.039 16.2301 163.47 17.982 163.47 19.9801C163.47 21.9877 163.03 23.7443 162.149 25.25C161.278 26.7462 160.033 27.9062 158.413 28.7301C156.794 29.554 154.872 29.9659 152.646 29.9659H145.232V24.4261H151.339C152.4 24.4261 153.286 24.2415 153.996 23.8722C154.715 23.5028 155.26 22.9867 155.629 22.3239C155.999 21.6515 156.183 20.8703 156.183 19.9801C156.183 19.0805 155.999 18.304 155.629 17.6506C155.26 16.9877 154.715 16.4763 153.996 16.1165C153.276 15.7566 152.391 15.5767 151.339 15.5767H147.874V39H140.842ZM166.936 39V9.90909H187.22V15.6193H173.967V21.5852H186.183V27.3097H173.967V33.2898H187.22V39H166.936ZM190.672 15.6193V9.90909H215.26V15.6193H206.439V39H199.507V15.6193H190.672Z" fill="white"/>
<g clip-path="url(#clip0_102_19)">
<path d="M0 3H38V41H0V3Z" fill="white"/>
<path d="M13.4609 23.776C13.8317 23.0001 13.7908 21.9894 13.3448 20.9299C12.5571 19.0563 11.1994 17.9862 10.0449 18.3266C8.89171 18.6671 8.42067 20.2464 8.87324 22.256C9.11734 23.3419 9.67942 24.1889 10.4566 24.6402C10.8287 24.8566 11.2271 24.9674 11.6164 24.9674C11.809 24.9674 11.999 24.941 12.1824 24.8856C12.7432 24.7207 13.1971 24.3262 13.4609 23.776Z" fill="black"/>
<path d="M14.1563 19.0445C14.6181 19.4654 15.1763 19.691 15.7436 19.691C15.8043 19.691 15.865 19.6884 15.9244 19.6831C16.5577 19.6303 17.1317 19.3097 17.542 18.7819C18.1147 18.0443 18.3113 16.9703 18.0962 15.7591C17.7122 13.6057 16.5366 12.1794 15.2356 12.2889C13.9399 12.3984 13.0665 13.9646 13.0625 16.1839C13.0599 17.3833 13.4478 18.3979 14.1563 19.0445Z" fill="black"/>
<path d="M28.025 18.3266C26.8705 17.9862 25.5128 19.0563 24.7251 20.9299C24.2791 21.9894 24.2382 23.0001 24.609 23.776C24.8728 24.3262 25.3267 24.7207 25.8875 24.8856C26.0709 24.941 26.2609 24.9674 26.4535 24.9674C26.8428 24.9674 27.2413 24.8566 27.6133 24.6402C28.3892 24.1889 28.9526 23.3419 29.1967 22.256C29.6492 20.2464 29.1782 18.6671 28.025 18.3266Z" fill="black"/>
<path d="M22.1456 19.6831C22.205 19.6884 22.2656 19.691 22.325 19.691C22.8937 19.691 23.4518 19.4654 23.9136 19.0445C24.6222 18.3979 25.0101 17.3833 25.0075 16.1839C25.0035 13.9646 24.13 12.3984 22.8343 12.2889C21.5347 12.1794 20.3577 13.6057 19.9738 15.7591C19.7587 16.9703 19.9553 18.0443 20.5279 18.7819C20.9383 19.3097 21.5122 19.6303 22.1456 19.6831Z" fill="black"/>
<path d="M23.94 25.4899C22.4055 24.3684 21.7787 22.6518 21.7721 22.6346L21.7695 22.6267C20.9079 20.5275 19.3391 20.443 19.0382 20.4483C18.7321 20.443 17.1633 20.5275 16.3004 22.6294C16.2938 22.6478 15.5562 24.4858 14.1325 25.4886C12.9767 26.3014 11.9621 27.8425 12.5809 29.7267C12.5994 29.7887 12.7986 30.4378 13.3818 30.9907C14.3872 31.9407 15.7106 31.8404 16.6434 31.5871L16.6487 31.5857C16.658 31.5831 17.5644 31.2994 18.3666 31.0989C18.8047 30.988 19.2665 30.988 19.7046 31.0989C20.5068 31.2994 21.4132 31.5831 21.4212 31.5857L21.4278 31.5871C21.8803 31.7098 22.2854 31.7612 22.6456 31.7612C23.6299 31.7612 24.283 31.3746 24.6894 30.9907C25.2726 30.4378 25.4719 29.7887 25.4903 29.7267C26.253 27.4031 24.4968 25.8963 23.94 25.4899Z" fill="black"/>
</g>
<defs>
<clipPath id="clip0_102_19">
<rect y="3" width="38" height="38" rx="7" fill="white"/>
</clipPath>
</defs>
</svg>
